<svg width="1440" height="900" viewBox="0 0 1440 900" fill="none" xmlns="http://www.w3.org/2000/svg">
<g clip-path="url(#clip0_12_7)">
<rect width="1440" height="900" fill="#45DFF9"/>
<mask id="mask0_12_7" style="mask-type:alpha" maskUnits="userSpaceOnUse" x="0" y="0" width="1440" height="900">
<rect width="1440" height="900" fill="#C4C4C4"/>
</mask>
<g mask="url(#mask0_12_7)">
<mask id="mask1_12_7" style="mask-type:alpha" maskUnits="userSpaceOnUse" x="-47" y="-43" width="1582" height="1039">
<rect x="1534.61" y="995.332" width="1581.17" height="1038.24" transform="rotate(179.988 1534.61 995.332)" fill="#F5288F"/>
</mask>
<g mask="url(#mask1_12_7)">
<g filter="url(#filter0_f_12_7)">
<circle cx="1172.63" cy="885.873" r="552.457" transform="rotate(179.988 1172.63 885.873)" fill="#007AFF"/>
</g>
<g filter="url(#filter1_f_12_7)">
<circle cx="-306.083" cy="476.757" r="552.457" transform="rotate(179.988 -306.083 476.757)" fill="#007AFF"/>
</g>
<g filter="url(#filter2_f_12_7)">
<circle cx="10.725" cy="955.327" r="402.437" transform="rotate(179.988 10.725 955.327)" fill="#F5FFCC" fill-opacity="0.54"/>
</g>
<g filter="url(#filter3_f_12_7)">
<circle cx="1534.43" cy="190.46" r="552.457" transform="rotate(179.988 1534.43 190.46)" fill="#45DFF9"/>
</g>
<g filter="url(#filter4_f_12_7)">
<circle cx="596.389" cy="1043.16" r="461.969" transform="rotate(179.988 596.389 1043.16)" fill="#007AFF"/>
</g>
<path d="M1467.9 1028.69C915.568 927.124 746.825 541.613 487.546 73.7728L1662.95 455.423C1782.05 680.365 1909.76 1109.93 1467.9 1028.69Z" fill="#45DFF9"/>
<g filter="url(#filter5_f_12_7)">
<path d="M1429.06 1034.43C876.728 932.869 843.853 651.051 584.574 183.211L1608.11 421.168C1727.21 646.11 1870.92 1115.68 1429.06 1034.43Z" fill="#45DFF9"/>
</g>
<g filter="url(#filter6_f_12_7)">
<path d="M1509.35 1114.48C955.465 1019.51 948.131 741.245 704.997 211.996L1729.43 445.373C1840.7 700.064 1952.46 1190.45 1509.35 1114.48Z" fill="#45DFF9"/>
</g>
<g filter="url(#filter7_f_12_7)">
<circle cx="743.794" cy="-42.7372" r="461.969" transform="rotate(179.988 743.794 -42.7372)" fill="#007AFF"/>
</g>
<path d="M1904.61 544.664C1063.65 606.852 672.122 110.88 117.809 -470.317L1970.29 -362.204C2228.72 -80.6441 2577.37 494.913 1904.61 544.664Z" fill="#45DFF9"/>
<g filter="url(#filter8_f_12_7)">
<path d="M1997.3 654.687C1156.34 716.875 1040 371.985 485.691 -209.212L2062.99 -252.181C2321.41 29.379 2670.07 604.937 1997.3 654.687Z" fill="#F5FFCC"/>
</g>
<g filter="url(#filter9_f_12_7)">
<path d="M1773.43 516.624C932.473 578.812 816.135 233.921 261.822 -347.276L1839.12 -390.245C2097.54 -108.685 2446.2 466.873 1773.43 516.624Z" fill="#F5FFCC"/>
</g>
<g filter="url(#filter10_f_12_7)">
<circle cx="1462.94" cy="-42.8926" r="552.457" transform="rotate(179.988 1462.94 -42.8926)" fill="#007AFF"/>
</g>
<g filter="url(#filter11_f_12_7)">
<path d="M1310.65 447.684C1310.61 258.303 1464.1 104.746 1653.48 104.705C1842.86 104.664 1996.42 258.155 1996.46 447.536C1996.5 636.917 1843.01 790.474 1653.63 790.515C1464.24 790.555 1310.69 637.065 1310.65 447.684Z" fill="#45DFF9"/>
</g>
<g filter="url(#filter12_f_12_7)">
<ellipse cx="730.105" cy="149.416" rx="295.5" ry="215" transform="rotate(-180 730.105 149.416)" fill="#45E0F9"/>
</g>
</g>
<g filter="url(#filter13_f_12_7)">
<ellipse cx="278.437" cy="601.513" rx="207.578" ry="315.612" transform="rotate(-34.1892 278.437 601.513)" fill="#0239FE"/>
</g>
<mask id="mask2_12_7" style="mask-type:alpha" maskUnits="userSpaceOnUse" x="-501" y="-93" width="1539" height="1214">
<path d="M916.836 1120.75L1037.93 191.498L179.386 -92.4083L-75.4924 -91.7729L-500.057 422.686L-468.295 840.296L275.387 1017.35L916.836 1120.75Z" fill="url(#paint0_linear_12_7)"/>
</mask>
<g mask="url(#mask2_12_7)">
<mask id="mask3_12_7" style="mask-type:alpha" maskUnits="userSpaceOnUse" x="-531" y="-153" width="1606" height="1281">
<path d="M-530.782 806.691C-430.216 386.788 -255.368 -131.099 -251.743 -152.34L1074.89 169.431L925.07 1127.58L-530.782 806.691Z" fill="url(#paint1_linear_12_7)"/>
</mask>
<g mask="url(#mask3_12_7)">
<path d="M190.257 96.2092C335.718 130.84 422.202 310.389 390.094 445.254C357.986 580.12 256.967 743.089 100.901 705.933C23.562 687.521 -91.805 755.319 -167.7 666.283C-244.959 575.648 -179.899 396.771 -163.702 328.738C-131.594 193.872 44.797 61.5787 190.257 96.2092Z" fill="#0239FE"/>
<g filter="url(#filter14_f_12_7)">
<path d="M185.765 107.345C341.768 144.486 425.61 287.857 400.683 392.562C375.755 497.268 284.183 620.662 128.18 583.521C50.8732 565.116 -60.3038 615.485 -139.738 541.478C-220.598 466.141 -165.34 328.397 -152.765 275.578C-127.837 170.873 29.7625 70.205 185.765 107.345Z" fill="#0239FE"/>
</g>
<g filter="url(#filter15_f_12_7)">
<path d="M197.487 141.659C372.336 183.286 463.137 357.289 432.357 486.578C401.576 615.867 295.213 769.829 120.364 728.202C33.7183 707.574 -95.73 784.36 -183.345 695.469C-272.534 604.981 -204.121 423.384 -188.594 358.164C-157.814 228.876 22.6379 100.032 197.487 141.659Z" fill="#0239FE"/>
</g>
<g filter="url(#filter16_f_12_7)">
<path d="M207.681 188.709C415.21 275.161 549.893 503.104 510.069 670.376C470.246 837.649 317.626 992.394 107.93 942.47C4.01494 917.731 -172.972 1068.24 -276.6 955.546C-382.09 840.83 -296.905 538.287 -276.816 453.906C-236.993 286.633 -32.7295 88.5586 207.681 188.709Z" fill="#0239FE"/>
</g>
<g filter="url(#filter17_f_12_7)">
<path d="M254.133 244.565C479.922 298.32 639.118 563.951 600.182 727.494C561.247 891.037 401.179 1039.75 175.39 985.995C63.5015 959.357 -87.2119 989.428 -200.756 876.338C-316.341 761.217 -301.595 406.401 -281.954 323.901C-243.018 160.357 28.3451 190.81 254.133 244.565Z" fill="#0239FE"/>
</g>
<g filter="url(#filter18_f_12_7)">
<path d="M342.596 334.606C575.927 390.157 724.321 658.408 684.497 825.681C644.674 992.953 479.705 1144.76 246.374 1089.21C130.747 1061.68 11.9771 794.281 -105.566 678.277C-225.221 560.19 -139.109 339.621 -119.02 255.24C-79.1963 87.9676 109.264 279.056 342.596 334.606Z" fill="#0239FE"/>
</g>
<g filter="url(#filter19_f_12_7)">
<path d="M181.49 268.149C384.559 321.146 502.161 586.017 458.741 752.392C415.32 918.767 262.275 1070.94 59.2053 1017.94C-41.4255 991.676 -175.16 1004.05 -273.095 889.992C-372.79 773.89 -285.896 554.197 -263.993 470.269C-220.572 303.894 -21.5799 215.152 181.49 268.149Z" fill="#0239FE"/>
</g>
</g>
</g>
<mask id="mask4_12_7" style="mask-type:alpha" maskUnits="userSpaceOnUse" x="448" y="-823" width="2296" height="2069">
<path d="M448.325 205.92C728.164 652.474 1085.23 1222.07 1097.4 1245.42L2743.61 217.495L2094.53 -822L448.325 205.92Z" fill="url(#paint2_linear_12_7)"/>
</mask>
<g mask="url(#mask4_12_7)">
<path d="M1749.99 584.335C1935.66 468.399 1991.81 210.833 1902.19 67.3084C1812.57 -76.216 1619.8 -217.635 1420.59 -93.2456C1321.87 -31.6046 1142.1 -52.7034 1069.45 92.0033C995.485 239.31 1144.86 418.108 1190.07 490.509C1279.69 634.033 1564.32 700.271 1749.99 584.335Z" fill="#0239FE"/>
<g filter="url(#filter20_f_12_7)">
<path d="M1740.09 573.433C1939.22 449.094 1995.8 222.5 1918.77 99.1308C1841.73 -24.2381 1665.51 -139.226 1466.39 -14.8872C1367.71 46.7286 1194.4 35.8643 1115.52 170.504C1035.23 307.563 1167.43 458.878 1206.29 521.112C1283.32 644.48 1540.96 697.771 1740.09 573.433Z" fill="#0239FE"/>
</g>
<g filter="url(#filter21_f_12_7)">
<path d="M1746.12 569.664C1969.3 430.304 2023.1 160.914 1928.12 8.8152C1833.15 -143.283 1624.31 -290.306 1401.13 -150.947C1290.53 -81.8879 1081.44 -117.836 997.332 39.9544C911.716 200.579 1079.7 401.896 1127.6 478.623C1222.58 630.721 1522.94 709.023 1746.12 569.664Z" fill="#0239FE"/>
</g>
<g filter="url(#filter22_f_12_7)">
<path d="M1760.63 535.566C2012.89 326.199 2117.95 -13.5934 2006.8 -191.605C1895.64 -369.617 1635.62 -474.728 1367.96 -307.595C1235.32 -224.772 943.664 -312.315 841.429 -125.269C737.356 65.1383 925.433 285.148 981.504 374.946C1092.66 552.958 1468.41 778.106 1760.63 535.566Z" fill="#0239FE"/>
</g>
<g filter="url(#filter23_f_12_7)">
<path d="M1808.49 405.554C2096.69 225.595 2201.59 -158.681 2092.92 -332.725C1984.24 -506.768 1716.17 -600.888 1427.96 -420.929C1285.14 -331.75 1070.26 -289.892 954.697 -97.2706C837.059 98.8114 1024.55 311.66 1079.38 399.457C1188.05 573.5 1520.28 585.514 1808.49 405.554Z" fill="#0239FE"/>
</g>
<g filter="url(#filter24_f_12_7)">
<path d="M1877.28 266.042C2175.11 80.0704 2285.03 -314.611 2173.88 -492.623C2062.73 -670.635 1786.94 -765.903 1489.11 -579.932C1341.52 -487.774 1119.9 -443.813 999.902 -245.676C877.749 -43.9794 1069.94 173.463 1126.01 263.261C1237.16 441.273 1579.45 452.013 1877.28 266.042Z" fill="#0239FE"/>
</g>
<g filter="url(#filter25_f_12_7)">
<path d="M1670.94 434.225C1931.55 271.5 2009.42 -103.169 1898.27 -281.181C1787.11 -459.192 1530.78 -566.608 1270.18 -403.883C1141.04 -323.244 954.67 -272.687 856.591 -88.2357C756.75 99.5288 943.865 320.139 999.936 409.937C1111.09 587.949 1410.34 596.95 1670.94 434.225Z" fill="#0239FE"/>
</g>
</g>
<mask id="mask5_12_7" style="mask-type:alpha" maskUnits="userSpaceOnUse" x="-199" y="416" width="1299" height="789">
<path d="M1057.04 1204.09L1099.56 770.482L-181.224 416.667L-198.882 906.236L1057.04 1204.09Z" fill="url(#paint3_linear_12_7)"/>
</mask>
<g mask="url(#mask5_12_7)">
<mask id="mask6_12_7" style="mask-type:alpha" maskUnits="userSpaceOnUse" x="-162" y="394" width="1268" height="866">
<path d="M1105.6 660.581L1018.16 1259.95L-161.686 920.069L-97.3348 394.476L1105.6 660.581Z" fill="url(#paint4_linear_12_7)"/>
</mask>
<g mask="url(#mask6_12_7)">
<path d="M264.407 723.115C447.427 901.172 654.387 910.93 803.311 901.915L925.307 902.984L1003.43 919.402L875.434 1075.37L649.864 1054.16L143.244 919.101C143.244 919.101 -250.465 685.124 -137.021 682.93C-40.0654 669.118 74.4664 587.532 264.407 723.115Z" fill="#0285FE"/>
<g filter="url(#filter26_f_12_7)">
<path d="M264.407 723.115C461.025 877.256 463.517 890.406 725.737 905.471L925.307 902.984L1003.43 919.402L875.434 1075.37L649.864 1054.16L143.244 919.101C143.244 919.101 -250.465 685.124 -137.021 682.93C-40.0654 669.118 74.4664 587.532 264.407 723.115Z" fill="#0285FE"/>
</g>
<g filter="url(#filter27_f_12_7)">
<path d="M264.407 723.115C525.554 965.332 528.753 881.239 790.973 896.304L866.947 894.158L946.168 902.792L1003.43 919.402L875.434 1075.37L649.864 1054.16L143.244 919.101C143.244 919.101 -250.465 685.124 -137.021 682.93C-40.0654 669.118 73.3753 561.78 264.407 723.115Z" fill="#0285FE"/>
</g>
<g filter="url(#filter28_f_12_7)">
<path d="M216.968 694.437C478.114 936.654 504.811 1011.46 828.762 895.974L904.736 893.828L1025.67 902.081L1120.73 918.361L875.153 1075.05L649.582 1053.84L142.962 918.781C142.962 918.781 -250.747 684.804 -137.303 682.61C-40.3473 668.798 25.9355 533.102 216.968 694.437Z" fill="#F5FFCC" fill-opacity="0.54"/>
</g>
<g filter="url(#filter29_f_12_7)">
<path d="M210.262 681.02C384.497 916.833 536.502 964.212 776.306 889.334L1090.32 801.925L1131.82 867.096L1120.73 918.361L875.153 1075.05L649.582 1053.84L142.962 918.781C142.962 918.781 -250.747 684.804 -137.303 682.61C-40.3473 668.798 -17.5261 422.485 210.262 681.02Z" fill="#0285FE"/>
</g>
</g>
</g>
</g>
</g>
<defs>
<filter id="filter0_f_12_7" x="67.7132" y="-219.042" width="2209.83" height="2209.83" filterUnits="userSpaceOnUse" color-interpolation-filters="sRGB">
<feFlood flood-opacity="0" result="BackgroundImageFix"/>
<feBlend mode="normal" in="SourceGraphic" in2="BackgroundImageFix" result="shape"/>
<feGaussianBlur stdDeviation="276.229" result="effect1_foregroundBlur_12_7"/>
</filter>
<filter id="filter1_f_12_7" x="-1411" y="-628.158" width="2209.83" height="2209.83" filterUnits="userSpaceOnUse" color-interpolation-filters="sRGB">
<feFlood flood-opacity="0" result="BackgroundImageFix"/>
<feBlend mode="normal" in="SourceGraphic" in2="BackgroundImageFix" result="shape"/>
<feGaussianBlur stdDeviation="276.229" result="effect1_foregroundBlur_12_7"/>
</filter>
<filter id="filter2_f_12_7" x="-944.169" y="0.4328" width="1909.79" height="1909.79" filterUnits="userSpaceOnUse" color-interpolation-filters="sRGB">
<feFlood flood-opacity="0" result="BackgroundImageFix"/>
<feBlend mode="normal" in="SourceGraphic" in2="BackgroundImageFix" result="shape"/>
<feGaussianBlur stdDeviation="276.229" result="effect1_foregroundBlur_12_7"/>
</filter>
<filter id="filter3_f_12_7" x="429.52" y="-914.454" width="2209.83" height="2209.83" filterUnits="userSpaceOnUse" color-interpolation-filters="sRGB">
<feFlood flood-opacity="0" result="BackgroundImageFix"/>
<feBlend mode="normal" in="SourceGraphic" in2="BackgroundImageFix" result="shape"/>
<feGaussianBlur stdDeviation="276.229" result="effect1_foregroundBlur_12_7"/>
</filter>
<filter id="filter4_f_12_7" x="-418.038" y="28.7325" width="2028.85" height="2028.85" filterUnits="userSpaceOnUse" color-interpolation-filters="sRGB">
<feFlood flood-opacity="0" result="BackgroundImageFix"/>
<feBlend mode="normal" in="SourceGraphic" in2="BackgroundImageFix" result="shape"/>
<feGaussianBlur stdDeviation="276.229" result="effect1_foregroundBlur_12_7"/>
</filter>
<filter id="filter5_f_12_7" x="523.27" y="121.907" width="1267.19" height="983.164" filterUnits="userSpaceOnUse" color-interpolation-filters="sRGB">
<feFlood flood-opacity="0" result="BackgroundImageFix"/>
<feBlend mode="normal" in="SourceGraphic" in2="BackgroundImageFix" result="shape"/>
<feGaussianBlur stdDeviation="30.6522" result="effect1_foregroundBlur_12_7"/>
</filter>
<filter id="filter6_f_12_7" x="578.301" y="85.3003" width="1377.73" height="1163.78" filterUnits="userSpaceOnUse" color-interpolation-filters="sRGB">
<feFlood flood-opacity="0" result="BackgroundImageFix"/>
<feBlend mode="normal" in="SourceGraphic" in2="BackgroundImageFix" result="shape"/>
<feGaussianBlur stdDeviation="63.3478" result="effect1_foregroundBlur_12_7"/>
</filter>
<filter id="filter7_f_12_7" x="-270.633" y="-1057.16" width="2028.85" height="2028.85" filterUnits="userSpaceOnUse" color-interpolation-filters="sRGB">
<feFlood flood-opacity="0" result="BackgroundImageFix"/>
<feBlend mode="normal" in="SourceGraphic" in2="BackgroundImageFix" result="shape"/>
<feGaussianBlur stdDeviation="276.229" result="effect1_foregroundBlur_12_7"/>
</filter>
<filter id="filter8_f_12_7" x="338.051" y="-399.82" width="2196.56" height="1209.35" filterUnits="userSpaceOnUse" color-interpolation-filters="sRGB">
<feFlood flood-opacity="0" result="BackgroundImageFix"/>
<feBlend mode="normal" in="SourceGraphic" in2="BackgroundImageFix" result="shape"/>
<feGaussianBlur stdDeviation="73.8197" result="effect1_foregroundBlur_12_7"/>
</filter>
<filter id="filter9_f_12_7" x="152.283" y="-499.784" width="2120.36" height="1133.15" filterUnits="userSpaceOnUse" color-interpolation-filters="sRGB">
<feFlood flood-opacity="0" result="BackgroundImageFix"/>
<feBlend mode="normal" in="SourceGraphic" in2="BackgroundImageFix" result="shape"/>
<feGaussianBlur stdDeviation="54.7695" result="effect1_foregroundBlur_12_7"/>
</filter>
<filter id="filter10_f_12_7" x="358.03" y="-1147.81" width="2209.83" height="2209.83" filterUnits="userSpaceOnUse" color-interpolation-filters="sRGB">
<feFlood flood-opacity="0" result="BackgroundImageFix"/>
<feBlend mode="normal" in="SourceGraphic" in2="BackgroundImageFix" result="shape"/>
<feGaussianBlur stdDeviation="276.229" result="effect1_foregroundBlur_12_7"/>
</filter>
<filter id="filter11_f_12_7" x="758.19" y="-447.752" width="1790.72" height="1790.72" filterUnits="userSpaceOnUse" color-interpolation-filters="sRGB">
<feFlood flood-opacity="0" result="BackgroundImageFix"/>
<feBlend mode="normal" in="SourceGraphic" in2="BackgroundImageFix" result="shape"/>
<feGaussianBlur stdDeviation="276.229" result="effect1_foregroundBlur_12_7"/>
</filter>
<filter id="filter12_f_12_7" x="134.605" y="-365.584" width="1191" height="1030" filterUnits="userSpaceOnUse" color-interpolation-filters="sRGB">
<feFlood flood-opacity="0" result="BackgroundImageFix"/>
<feBlend mode="normal" in="SourceGraphic" in2="BackgroundImageFix" result="shape"/>
<feGaussianBlur stdDeviation="150" result="effect1_foregroundBlur_12_7"/>
</filter>
<filter id="filter13_f_12_7" x="-216.951" y="66.9638" width="990.777" height="1069.1" filterUnits="userSpaceOnUse" color-interpolation-filters="sRGB">
<feFlood flood-opacity="0" result="BackgroundImageFix"/>
<feBlend mode="normal" in="SourceGraphic" in2="BackgroundImageFix" result="shape"/>
<feGaussianBlur stdDeviation="124.268" result="effect1_foregroundBlur_12_7"/>
</filter>
<filter id="filter14_f_12_7" x="-192.822" y="89.5324" width="607.787" height="510.683" filterUnits="userSpaceOnUse" color-interpolation-filters="sRGB">
<feFlood flood-opacity="0" result="BackgroundImageFix"/>
<feBlend mode="normal" in="SourceGraphic" in2="BackgroundImageFix" result="shape"/>
<feGaussianBlur stdDeviation="4.97072" result="effect1_foregroundBlur_12_7"/>
</filter>
<filter id="filter15_f_12_7" x="-263.092" y="98.8986" width="736.167" height="675.377" filterUnits="userSpaceOnUse" color-interpolation-filters="sRGB">
<feFlood flood-opacity="0" result="BackgroundImageFix"/>
<feBlend mode="normal" in="SourceGraphic" in2="BackgroundImageFix" result="shape"/>
<feGaussianBlur stdDeviation="17.3975" result="effect1_foregroundBlur_12_7"/>
</filter>
<filter id="filter16_f_12_7" x="-378.049" y="111.952" width="944.801" height="935.683" filterUnits="userSpaceOnUse" color-interpolation-filters="sRGB">
<feFlood flood-opacity="0" result="BackgroundImageFix"/>
<feBlend mode="normal" in="SourceGraphic" in2="BackgroundImageFix" result="shape"/>
<feGaussianBlur stdDeviation="24.8536" result="effect1_foregroundBlur_12_7"/>
</filter>
<filter id="filter17_f_12_7" x="-429.62" y="67.4734" width="1169.88" height="1063.92" filterUnits="userSpaceOnUse" color-interpolation-filters="sRGB">
<feFlood flood-opacity="0" result="BackgroundImageFix"/>
<feBlend mode="normal" in="SourceGraphic" in2="BackgroundImageFix" result="shape"/>
<feGaussianBlur stdDeviation="67.1047" result="effect1_foregroundBlur_12_7"/>
</filter>
<filter id="filter18_f_12_7" x="-500.833" y="-144.959" width="1524.82" height="1578.88" filterUnits="userSpaceOnUse" color-interpolation-filters="sRGB">
<feFlood flood-opacity="0" result="BackgroundImageFix"/>
<feBlend mode="normal" in="SourceGraphic" in2="BackgroundImageFix" result="shape"/>
<feGaussianBlur stdDeviation="166.519" result="effect1_foregroundBlur_12_7"/>
</filter>
<filter id="filter19_f_12_7" x="-474.082" y="98.7469" width="1095.89" height="1084.01" filterUnits="userSpaceOnUse" color-interpolation-filters="sRGB">
<feFlood flood-opacity="0" result="BackgroundImageFix"/>
<feBlend mode="normal" in="SourceGraphic" in2="BackgroundImageFix" result="shape"/>
<feGaussianBlur stdDeviation="77.0461" result="effect1_foregroundBlur_12_7"/>
</filter>
<filter id="filter20_f_12_7" x="1080.17" y="-78.3611" width="881.637" height="732.564" filterUnits="userSpaceOnUse" color-interpolation-filters="sRGB">
<feFlood flood-opacity="0" result="BackgroundImageFix"/>
<feBlend mode="normal" in="SourceGraphic" in2="BackgroundImageFix" result="shape"/>
<feGaussianBlur stdDeviation="4.97072" result="effect1_foregroundBlur_12_7"/>
</filter>
<filter id="filter21_f_12_7" x="938.606" y="-241.626" width="1069.14" height="918.686" filterUnits="userSpaceOnUse" color-interpolation-filters="sRGB">
<feFlood flood-opacity="0" result="BackgroundImageFix"/>
<feBlend mode="normal" in="SourceGraphic" in2="BackgroundImageFix" result="shape"/>
<feGaussianBlur stdDeviation="17.3975" result="effect1_foregroundBlur_12_7"/>
</filter>
<filter id="filter22_f_12_7" x="760.879" y="-441.293" width="1339.73" height="1132.64" filterUnits="userSpaceOnUse" color-interpolation-filters="sRGB">
<feFlood flood-opacity="0" result="BackgroundImageFix"/>
<feBlend mode="normal" in="SourceGraphic" in2="BackgroundImageFix" result="shape"/>
<feGaussianBlur stdDeviation="24.8536" result="effect1_foregroundBlur_12_7"/>
</filter>
<filter id="filter23_f_12_7" x="782.415" y="-652.215" width="1486.7" height="1321.77" filterUnits="userSpaceOnUse" color-interpolation-filters="sRGB">
<feFlood flood-opacity="0" result="BackgroundImageFix"/>
<feBlend mode="normal" in="SourceGraphic" in2="BackgroundImageFix" result="shape"/>
<feGaussianBlur stdDeviation="67.1047" result="effect1_foregroundBlur_12_7"/>
</filter>
<filter id="filter24_f_12_7" x="626.977" y="-1014.04" width="1922.4" height="1748.27" filterUnits="userSpaceOnUse" color-interpolation-filters="sRGB">
<feFlood flood-opacity="0" result="BackgroundImageFix"/>
<feBlend mode="normal" in="SourceGraphic" in2="BackgroundImageFix" result="shape"/>
<feGaussianBlur stdDeviation="166.519" result="effect1_foregroundBlur_12_7"/>
</filter>
<filter id="filter25_f_12_7" x="673.673" y="-638.129" width="1427.87" height="1342.38" filterUnits="userSpaceOnUse" color-interpolation-filters="sRGB">
<feFlood flood-opacity="0" result="BackgroundImageFix"/>
<feBlend mode="normal" in="SourceGraphic" in2="BackgroundImageFix" result="shape"/>
<feGaussianBlur stdDeviation="77.0461" result="effect1_foregroundBlur_12_7"/>
</filter>
<filter id="filter26_f_12_7" x="-169.491" y="634.063" width="1184.87" height="453.252" filterUnits="userSpaceOnUse" color-interpolation-filters="sRGB">
<feFlood flood-opacity="0" result="BackgroundImageFix"/>
<feBlend mode="normal" in="SourceGraphic" in2="BackgroundImageFix" result="shape"/>
<feGaussianBlur stdDeviation="5.97027" result="effect1_foregroundBlur_12_7"/>
</filter>
<filter id="filter27_f_12_7" x="-176.314" y="616.415" width="1198.51" height="477.723" filterUnits="userSpaceOnUse" color-interpolation-filters="sRGB">
<feFlood flood-opacity="0" result="BackgroundImageFix"/>
<feBlend mode="normal" in="SourceGraphic" in2="BackgroundImageFix" result="shape"/>
<feGaussianBlur stdDeviation="9.38185" result="effect1_foregroundBlur_12_7"/>
</filter>
<filter id="filter28_f_12_7" x="-190.243" y="583.71" width="1343.38" height="523.755" filterUnits="userSpaceOnUse" color-interpolation-filters="sRGB">
<feFlood flood-opacity="0" result="BackgroundImageFix"/>
<feBlend mode="normal" in="SourceGraphic" in2="BackgroundImageFix" result="shape"/>
<feGaussianBlur stdDeviation="16.205" result="effect1_foregroundBlur_12_7"/>
</filter>
<filter id="filter29_f_12_7" x="-210.712" y="510.535" width="1395.42" height="617.4" filterUnits="userSpaceOnUse" color-interpolation-filters="sRGB">
<feFlood flood-opacity="0" result="BackgroundImageFix"/>
<feBlend mode="normal" in="SourceGraphic" in2="BackgroundImageFix" result="shape"/>
<feGaussianBlur stdDeviation="26.4398" result="effect1_foregroundBlur_12_7"/>
</filter>
<linearGradient id="paint0_linear_12_7" x1="380.572" y1="401.85" x2="-105.448" y2="327.521" gradientUnits="userSpaceOnUse">
<stop stop-color="#C4C4C4"/>
<stop offset="0.943414" stop-color="#C4C4C4" stop-opacity="0"/>
</linearGradient>
<linearGradient id="paint1_linear_12_7" x1="193" y1="158.501" x2="64.7159" y2="716.432" gradientUnits="userSpaceOnUse">
<stop stop-color="#C4C4C4"/>
<stop offset="1" stop-color="#C4C4C4" stop-opacity="0"/>
</linearGradient>
<linearGradient id="paint2_linear_12_7" x1="1682.86" y1="650.966" x2="1246.57" y2="-99.9513" gradientUnits="userSpaceOnUse">
<stop stop-color="#C4C4C4"/>
<stop offset="1" stop-color="#C4C4C4" stop-opacity="0"/>
</linearGradient>
<linearGradient id="paint3_linear_12_7" x1="450.181" y1="838.5" x2="417.308" y2="985.682" gradientUnits="userSpaceOnUse">
<stop stop-color="#C4C4C4"/>
<stop offset="1" stop-color="#C4C4C4" stop-opacity="0"/>
</linearGradient>
<linearGradient id="paint4_linear_12_7" x1="-141.243" y1="716.205" x2="1015.69" y2="948.696" gradientUnits="userSpaceOnUse">
<stop stop-color="#C4C4C4" stop-opacity="0"/>
<stop offset="0.364583" stop-color="#C4C4C4"/>
<stop offset="0.609375" stop-color="#C4C4C4"/>
<stop offset="1" stop-color="#C4C4C4" stop-opacity="0"/>
</linearGradient>
<clipPath id="clip0_12_7">
<rect width="1440" height="900" fill="white"/>
</clipPath>
</defs>
</svg>
